<svg width="100" height="100" viewBox="0 0 100 100" fill="none" xmlns="http://www.w3.org/2000/svg">
  <!-- Japanese/Anime style pattern elements -->
  <g opacity="0.5">
    <!-- Cherry blossom 1 -->
    <path d="M20 20C20 20 18 18 20 16C22 14 24 16 24 16C24 16 26 14 28 16C30 18 28 20 28 20C28 20 30 22 28 24C26 26 24 24 24 24C24 24 22 26 20 24C18 22 20 20 20 20Z" fill="white"/>
    <circle cx="24" cy="20" r="2" fill="white"/>
    
    <!-- Cherry blossom 2 -->
    <path d="M70 30C70 30 68 28 70 26C72 24 74 26 74 26C74 26 76 24 78 26C80 28 78 30 78 30C78 30 80 32 78 34C76 36 74 34 74 34C74 34 72 36 70 34C68 32 70 30 70 30Z" fill="white"/>
    <circle cx="74" cy="30" r="2" fill="white"/>
    
    <!-- Cherry blossom 3 -->
    <path d="M40 70C40 70 38 68 40 66C42 64 44 66 44 66C44 66 46 64 48 66C50 68 48 70 48 70C48 70 50 72 48 74C46 76 44 74 44 74C44 74 42 76 40 74C38 72 40 70 40 70Z" fill="white"/>
    <circle cx="44" cy="70" r="2" fill="white"/>
    
    <!-- Cherry blossom 4 -->
    <path d="M80 80C80 80 78 78 80 76C82 74 84 76 84 76C84 76 86 74 88 76C90 78 88 80 88 80C88 80 90 82 88 84C86 86 84 84 84 84C84 84 82 86 80 84C78 82 80 80 80 80Z" fill="white"/>
    <circle cx="84" cy="80" r="2" fill="white"/>
    
    <!-- Wave pattern 1 -->
    <path d="M10 40C15 35 20 45 25 40C30 35 35 45 40 40" stroke="white" stroke-width="1" stroke-linecap="round"/>
    
    <!-- Wave pattern 2 -->
    <path d="M50 50C55 45 60 55 65 50C70 45 75 55 80 50" stroke="white" stroke-width="1" stroke-linecap="round"/>
    
    <!-- Wave pattern 3 -->
    <path d="M5 60C10 55 15 65 20 60C25 55 30 65 35 60" stroke="white" stroke-width="1" stroke-linecap="round"/>
    
    <!-- Small circles -->
    <circle cx="15" cy="15" r="1.5" fill="white"/>
    <circle cx="85" cy="15" r="1.5" fill="white"/>
    <circle cx="15" cy="85" r="1.5" fill="white"/>
    <circle cx="85" cy="85" r="1.5" fill="white"/>
    
    <!-- Medium circles -->
    <circle cx="50" cy="15" r="2" fill="white"/>
    <circle cx="15" cy="50" r="2" fill="white"/>
    <circle cx="85" cy="50" r="2" fill="white"/>
    <circle cx="50" cy="85" r="2" fill="white"/>
    
    <!-- Star 1 -->
    <path d="M60 15L61 12L62 15L65 16L62 17L61 20L60 17L57 16L60 15Z" fill="white"/>
    
    <!-- Star 2 -->
    <path d="M30 30L31 27L32 30L35 31L32 32L31 35L30 32L27 31L30 30Z" fill="white"/>
    
    <!-- Star 3 -->
    <path d="M75 65L76 62L77 65L80 66L77 67L76 70L75 67L72 66L75 65Z" fill="white"/>
    
    <!-- Kanji-inspired shape 1 -->
    <path d="M10 75H15V80H10V75ZM12.5 75V72.5M12.5 80V82.5" stroke="white" stroke-width="1" stroke-linecap="round"/>
    
    <!-- Kanji-inspired shape 2 -->
    <path d="M90 25H95V30H90V25ZM92.5 25V22.5M92.5 30V32.5" stroke="white" stroke-width="1" stroke-linecap="round"/>
  </g>
</svg>