<svg width="500" height="700" viewBox="0 0 500 700" fill="none" xmlns="http://www.w3.org/2000/svg">
  <!-- Background gradient -->
  <rect width="500" height="700" rx="10" fill="url(#paint0_linear)"/>
  
  <!-- Book title placeholder -->
  <rect x="50" y="100" width="400" height="80" rx="5" fill="white" fill-opacity="0.1"/>
  <rect x="100" y="120" width="300" height="40" rx="5" fill="white" fill-opacity="0.2"/>
  
  <!-- Author placeholder -->
  <rect x="150" y="200" width="200" height="30" rx="5" fill="white" fill-opacity="0.1"/>
  
  <!-- Book illustration -->
  <circle cx="250" cy="350" r="100" fill="white" fill-opacity="0.1"/>
  
  <!-- Open book icon -->
  <path d="M200 350C200 330 220 320 250 320C280 320 300 330 300 350V380C300 400 280 410 250 410C220 410 200 400 200 380V350Z" fill="white" fill-opacity="0.2"/>
  <path d="M250 320V410" stroke="white" stroke-width="2" stroke-opacity="0.5"/>
  <path d="M200 350H300" stroke="white" stroke-width="2" stroke-opacity="0.5"/>
  
  <!-- Anime character silhouette -->
  <path d="M230 300C230 300 240 290 250 290C260 290 270 300 270 300" stroke="white" stroke-width="3" stroke-linecap="round" stroke-opacity="0.7"/>
  <circle cx="240" cy="310" r="5" fill="white" fill-opacity="0.7"/>
  <circle cx="260" cy="310" r="5" fill="white" fill-opacity="0.7"/>
  
  <!-- Decorative elements -->
  <circle cx="100" cy="500" r="30" fill="white" fill-opacity="0.1"/>
  <circle cx="400" cy="500" r="30" fill="white" fill-opacity="0.1"/>
  <circle cx="150" cy="600" r="20" fill="white" fill-opacity="0.1"/>
  <circle cx="350" cy="600" r="20" fill="white" fill-opacity="0.1"/>
  <circle cx="250" cy="550" r="50" fill="white" fill-opacity="0.05"/>
  
  <!-- Text at bottom -->
  <rect x="100" y="620" width="300" height="30" rx="5" fill="white" fill-opacity="0.1"/>
  
  <!-- Gradient definition -->
  <defs>
    <linearGradient id="paint0_linear" x1="0" y1="0" x2="500" y2="700" gradientUnits="userSpaceOnUse">
      <stop offset="0" stop-color="#8E44AD"/>
      <stop offset="1" stop-color="#3498DB"/>
    </linearGradient>
  </defs>
</svg>