<svg width="100" height="100" viewBox="0 0 100 100" fill="none" xmlns="http://www.w3.org/2000/svg">
  <!-- Small book icons pattern -->
  <g opacity="0.5">
    <!-- Book 1 -->
    <rect x="10" y="10" width="20" height="15" rx="2" fill="white"/>
    <line x1="20" y1="10" x2="20" y2="25" stroke="white" stroke-width="1"/>
    
    <!-- Book 2 -->
    <rect x="70" y="20" width="15" height="10" rx="2" fill="white"/>
    <line x1="77.5" y1="20" x2="77.5" y2="30" stroke="white" stroke-width="1"/>
    
    <!-- Book 3 -->
    <rect x="40" y="60" width="20" height="15" rx="2" fill="white"/>
    <line x1="50" y1="60" x2="50" y2="75" stroke="white" stroke-width="1"/>
    
    <!-- Book 4 -->
    <rect x="15" y="70" width="15" height="10" rx="2" fill="white"/>
    <line x1="22.5" y1="70" x2="22.5" y2="80" stroke="white" stroke-width="1"/>
    
    <!-- Book 5 -->
    <rect x="75" y="65" width="15" height="10" rx="2" fill="white"/>
    <line x1="82.5" y1="65" x2="82.5" y2="75" stroke="white" stroke-width="1"/>
    
    <!-- Star 1 -->
    <path d="M30 40L32 35L34 40L39 42L34 44L32 49L30 44L25 42L30 40Z" fill="white"/>
    
    <!-- Star 2 -->
    <path d="M60 25L61 22L62 25L65 26L62 27L61 30L60 27L57 26L60 25Z" fill="white"/>
    
    <!-- Star 3 -->
    <path d="M65 85L66 82L67 85L70 86L67 87L66 90L65 87L62 86L65 85Z" fill="white"/>
    
    <!-- Circle 1 -->
    <circle cx="50" cy="15" r="3" fill="white"/>
    
    <!-- Circle 2 -->
    <circle cx="85" cy="45" r="3" fill="white"/>
    
    <!-- Circle 3 -->
    <circle cx="15" cy="45" r="2" fill="white"/>
    
    <!-- Circle 4 -->
    <circle cx="50" cy="90" r="2" fill="white"/>
  </g>
</svg>