<svg width="40" height="40" viewBox="0 0 40 40" fill="none" xmlns="http://www.w3.org/2000/svg">
  <!-- Book shape -->
  <path d="M5 5C5 3.89543 5.89543 3 7 3H33C34.1046 3 35 3.89543 35 5V35C35 36.1046 34.1046 37 33 37H7C5.89543 37 5 36.1046 5 35V5Z" fill="#8E44AD"/>
  
  <!-- Book pages -->
  <path d="M7 3H33C34.1046 3 35 3.89543 35 5V35C35 36.1046 34.1046 37 33 37H7C5.89543 37 5 36.1046 5 35V5C5 3.89543 5.89543 3 7 3Z" fill="#9B59B6"/>
  <path d="M8 5C8 4.44772 8.44772 4 9 4H33C33.5523 4 34 4.44772 34 5V35C34 35.5523 33.5523 36 33 36H9C8.44772 36 8 35.5523 8 35V5Z" fill="white"/>
  
  <!-- Book spine details -->
  <rect x="5" y="10" width="3" height="1.5" rx="0.75" fill="#8E44AD"/>
  <rect x="5" y="20" width="3" height="1.5" rx="0.75" fill="#8E44AD"/>
  <rect x="5" y="30" width="3" height="1.5" rx="0.75" fill="#8E44AD"/>
  
  <!-- Anime character -->
  <circle cx="20" cy="20" r="8" fill="#F5EEF8"/>
  <path d="M16 17C16 17 17 15 20 15C23 15 24 17 24 17" stroke="#8E44AD" stroke-width="1.5" stroke-linecap="round"/>
  <circle cx="17" cy="18" r="1" fill="#8E44AD"/>
  <circle cx="23" cy="18" r="1" fill="#8E44AD"/>
  <path d="M18 22C18 22 19 23 20 23C21 23 22 22 22 22" stroke="#8E44AD" stroke-width="1.5" stroke-linecap="round"/>
</svg>