<svg width="200" height="60" viewBox="0 0 200 60" fill="none" xmlns="http://www.w3.org/2000/svg">
  <!-- Book shape -->
  <path d="M30 10C30 7.79086 31.7909 6 34 6H50C52.2091 6 54 7.79086 54 10V50C54 52.2091 52.2091 54 50 54H34C31.7909 54 30 52.2091 30 50V10Z" fill="#8E44AD"/>
  
  <!-- Book pages -->
  <path d="M34 6H50C52.2091 6 54 7.79086 54 10V50C54 52.2091 52.2091 54 50 54H34C31.7909 54 30 52.2091 30 50V10C30 7.79086 31.7909 6 34 6Z" fill="#9B59B6"/>
  <path d="M32 10C32 8.89543 32.8954 8 34 8H50C51.1046 8 52 8.89543 52 10V50C52 51.1046 51.1046 52 50 52H34C32.8954 52 32 51.1046 32 50V10Z" fill="white"/>
  
  <!-- Book spine details -->
  <rect x="30" y="15" width="4" height="2" rx="1" fill="#8E44AD"/>
  <rect x="30" y="25" width="4" height="2" rx="1" fill="#8E44AD"/>
  <rect x="30" y="35" width="4" height="2" rx="1" fill="#8E44AD"/>
  <rect x="30" y="45" width="4" height="2" rx="1" fill="#8E44AD"/>
  
  <!-- Anime character -->
  <circle cx="42" cy="30" r="10" fill="#F5EEF8"/>
  <path d="M38 26C38 26 39 24 42 24C45 24 46 26 46 26" stroke="#8E44AD" stroke-width="1.5" stroke-linecap="round"/>
  <circle cx="39" cy="28" r="1" fill="#8E44AD"/>
  <circle cx="45" cy="28" r="1" fill="#8E44AD"/>
  <path d="M40 33C40 33 41 34 42 34C43 34 44 33 44 33" stroke="#8E44AD" stroke-width="1.5" stroke-linecap="round"/>
  
  <!-- Text -->
  <path d="M65 25L67.5 20H70L72.5 25H70L69.5 24H68L67.5 25H65ZM68.5 23H69L68.75 22.5L68.5 23Z" fill="#8E44AD"/>
  <path d="M73 20H75V23.5C75 23.8333 75.1667 24 75.5 24C75.8333 24 76 23.8333 76 23.5V20H78V23.5C78 24.5 77.6667 25.1667 77 25.5C76.3333 25.8333 75.6667 26 75 26C74.3333 26 73.6667 25.8333 73 25.5C72.3333 25.1667 72 24.5 72 23.5V20H73Z" fill="#8E44AD"/>
  <path d="M79 20H81V23H83V20H85V25H79V20Z" fill="#8E44AD"/>
  <path d="M86 20H88V25H86V20Z" fill="#8E44AD"/>
  <path d="M89 20H91V23.5L93 20H95V25H93V21.5L91 25H89V20Z" fill="#8E44AD"/>
  <path d="M96 20H100C100.667 20 101.167 20.1667 101.5 20.5C101.833 20.8333 102 21.3333 102 22V23C102 23.6667 101.833 24.1667 101.5 24.5C101.167 24.8333 100.667 25 100 25H96V20ZM98 21.5V23.5H99.5C99.6667 23.5 99.8333 23.4167 100 23.25C100.167 23.0833 100.25 22.8333 100.25 22.5C100.25 22.1667 100.167 21.9167 100 21.75C99.8333 21.5833 99.6667 21.5 99.5 21.5H98Z" fill="#8E44AD"/>
  <path d="M103 20H108C108.667 20 109.167 20.1667 109.5 20.5C109.833 20.8333 110 21.3333 110 22C110 22.5 109.917 22.8333 109.75 23C109.583 23.1667 109.333 23.3333 109 23.5C109.333 23.6667 109.583 23.8333 109.75 24C109.917 24.1667 110 24.5 110 25H108C108 24.8333 107.917 24.6667 107.75 24.5C107.583 24.3333 107.333 24.25 107 24.25H105V25H103V20ZM105 21.5V22.75H107C107.167 22.75 107.333 22.6667 107.5 22.5C107.667 22.3333 107.75 22.1667 107.75 22C107.75 21.8333 107.667 21.6667 107.5 21.5C107.333 21.3333 107.167 21.25 107 21.25H105V21.5Z" fill="#8E44AD"/>
  <path d="M111 20H116C116.667 20 117.167 20.1667 117.5 20.5C117.833 20.8333 118 21.3333 118 22C118 22.6667 117.833 23.1667 117.5 23.5C117.167 23.8333 116.667 24 116 24H113V25H111V20ZM113 21.5V22.5H115.5C115.667 22.5 115.833 22.4167 116 22.25C116.167 22.0833 116.25 21.8333 116.25 21.5C116.25 21.1667 116.167 20.9167 116 20.75C115.833 20.5833 115.667 20.5 115.5 20.5H113V21.5Z" fill="#8E44AD"/>
  <path d="M119 20H124C124.667 20 125.167 20.1667 125.5 20.5C125.833 20.8333 126 21.3333 126 22C126 22.5 125.917 22.8333 125.75 23C125.583 23.1667 125.333 23.3333 125 23.5C125.333 23.6667 125.583 23.8333 125.75 24C125.917 24.1667 126 24.5 126 25H124C124 24.8333 123.917 24.6667 123.75 24.5C123.583 24.3333 123.333 24.25 123 24.25H121V25H119V20ZM121 21.5V22.75H123C123.167 22.75 123.333 22.6667 123.5 22.5C123.667 22.3333 123.75 22.1667 123.75 22C123.75 21.8333 123.667 21.6667 123.5 21.5C123.333 21.3333 123.167 21.25 123 21.25H121V21.5Z" fill="#8E44AD"/>
  <path d="M127 20H129V23H131V20H133V25H127V20Z" fill="#8E44AD"/>
  <path d="M134 20H139C139.667 20 140.167 20.1667 140.5 20.5C140.833 20.8333 141 21.3333 141 22C141 22.6667 140.833 23.1667 140.5 23.5C140.167 23.8333 139.667 24 139 24H136V25H134V20ZM136 21.5V22.5H138.5C138.667 22.5 138.833 22.4167 139 22.25C139.167 22.0833 139.25 21.8333 139.25 21.5C139.25 21.1667 139.167 20.9167 139 20.75C138.833 20.5833 138.667 20.5 138.5 20.5H136V21.5Z" fill="#8E44AD"/>
  <path d="M142 20H144V23.5C144 23.8333 144.167 24 144.5 24C144.833 24 145 23.8333 145 23.5V20H147V23.5C147 24.5 146.667 25.1667 146 25.5C145.333 25.8333 144.667 26 144 26C143.333 26 142.667 25.8333 142 25.5C141.333 25.1667 141 24.5 141 23.5V20H142Z" fill="#8E44AD"/>
  <path d="M65 35L67.5 30H70L72.5 35H70L69.5 34H68L67.5 35H65ZM68.5 33H69L68.75 32.5L68.5 33Z" fill="#8E44AD"/>
  <path d="M73 30H78C78.6667 30 79.1667 30.1667 79.5 30.5C79.8333 30.8333 80 31.3333 80 32V33C80 33.6667 79.8333 34.1667 79.5 34.5C79.1667 34.8333 78.6667 35 78 35H73V30ZM75 31.5V33.5H77.5C77.6667 33.5 77.8333 33.4167 78 33.25C78.1667 33.0833 78.25 32.8333 78.25 32.5C78.25 32.1667 78.1667 31.9167 78 31.75C77.8333 31.5833 77.6667 31.5 77.5 31.5H75Z" fill="#8E44AD"/>
  <path d="M81 30H83V35H81V30Z" fill="#8E44AD"/>
  <path d="M84 30H86V33.5L88 30H90V35H88V31.5L86 35H84V30Z" fill="#8E44AD"/>
  <path d="M91 30H96C96.6667 30 97.1667 30.1667 97.5 30.5C97.8333 30.8333 98 31.3333 98 32V33C98 33.6667 97.8333 34.1667 97.5 34.5C97.1667 34.8333 96.6667 35 96 35H91V30ZM93 31.5V33.5H95.5C95.6667 33.5 95.8333 33.4167 96 33.25C96.1667 33.0833 96.25 32.8333 96.25 32.5C96.25 32.1667 96.1667 31.9167 96 31.75C95.8333 31.5833 95.6667 31.5 95.5 31.5H93Z" fill="#8E44AD"/>
  <path d="M99 30H101V33H103V30H105V35H99V30Z" fill="#8E44AD"/>
  <path d="M106 30H111C111.667 30 112.167 30.1667 112.5 30.5C112.833 30.8333 113 31.3333 113 32C113 32.6667 112.833 33.1667 112.5 33.5C112.167 33.8333 111.667 34 111 34H108V35H106V30ZM108 31.5V32.5H110.5C110.667 32.5 110.833 32.4167 111 32.25C111.167 32.0833 111.25 31.8333 111.25 31.5C111.25 31.1667 111.167 30.9167 111 30.75C110.833 30.5833 110.667 30.5 110.5 30.5H108V31.5Z" fill="#8E44AD"/>
  <path d="M114 30H116V33.5C116 33.8333 116.167 34 116.5 34C116.833 34 117 33.8333 117 33.5V30H119V33.5C119 34.5 118.667 35.1667 118 35.5C117.333 35.8333 116.667 36 116 36C115.333 36 114.667 35.8333 114 35.5C113.333 35.1667 113 34.5 113 33.5V30H114Z" fill="#8E44AD"/>
  <path d="M120 30H122V33.5L124 30H126V35H124V31.5L122 35H120V30Z" fill="#8E44AD"/>
  <path d="M127 30H129V35H127V30Z" fill="#8E44AD"/>
  <path d="M130 30H132V33.5L134 30H136V35H134V31.5L132 35H130V30Z" fill="#8E44AD"/>
  <path d="M137 30H142C142.667 30 143.167 30.1667 143.5 30.5C143.833 30.8333 144 31.3333 144 32V33C144 33.6667 143.833 34.1667 143.5 34.5C143.167 34.8333 142.667 35 142 35H137V30ZM139 31.5V33.5H141.5C141.667 33.5 141.833 33.4167 142 33.25C142.167 33.0833 142.25 32.8333 142.25 32.5C142.25 32.1667 142.167 31.9167 142 31.75C141.833 31.5833 141.667 31.5 141.5 31.5H139Z" fill="#8E44AD"/>
  <path d="M145 30H147V33.5C147 33.8333 147.167 34 147.5 34C147.833 34 148 33.8333 148 33.5V30H150V33.5C150 34.5 149.667 35.1667 149 35.5C148.333 35.8333 147.667 36 147 36C146.333 36 145.667 35.8333 145 35.5C144.333 35.1667 144 34.5 144 33.5V30H145Z" fill="#8E44AD"/>
  <path d="M151 30H153V33H155V30H157V35H151V30Z" fill="#8E44AD"/>
</svg>